<svg id="Capa_1" enable-background="new 0 0 497 497" height="512" viewBox="0 0 497 497" width="512" xmlns="http://www.w3.org/2000/svg"><g><g><path d="m16.567 40.5h463.867v277.267h-463.867z" fill="#d0eafd"/><path d="m457.433 40.5h23v277.267h-23z" fill="#b5defd"/><path d="m489 49.7h-481c-4.418 0-8-3.582-8-8v-17.133c0-4.418 3.582-8 8-8h481c4.418 0 8 3.582 8 8v17.133c0 4.418-3.582 8-8 8z" fill="#716e6e"/><path d="m489 16.567h-23c4.418 0 8 3.582 8 8v17.133c0 4.418-3.582 8-8 8h23c4.418 0 8-3.582 8-8v-17.133c0-4.419-3.582-8-8-8z" fill="#585555"/></g><g><path d="m149.1 317.767v-102.4c0-18.299-14.834-33.133-33.133-33.133h-33.134c-18.299 0-33.133 14.834-33.133 33.133v82.833c0 9.149 7.417 16.567 16.567 16.567v3z" fill="#e6ded9"/><path d="m115.967 182.233h-23c18.299 0 33.133 14.834 33.133 33.133v102.4h23v-102.4c0-18.298-14.834-33.133-33.133-33.133z" fill="#d6cfca"/></g><g><g fill="#b1e39d"><path d="m315.502 233.554c4.781 31.9 32.299 56.363 65.531 56.363 0-33.232-24.462-60.751-56.363-65.532-5.386-.807-9.975 3.783-9.168 9.169z"/><path d="m446.565 233.554c-4.781 31.9-32.299 56.363-65.532 56.363 0-33.232 24.462-60.751 56.363-65.532 5.386-.807 9.976 3.783 9.169 9.169z"/></g><path d="m446.565 157.95c-4.781 31.9-32.299 56.363-65.532 56.363 0-33.232 24.462-60.751 56.363-65.531 5.386-.808 9.976 3.782 9.169 9.168z" fill="#b1e39d"/><path d="m437.396 148.781c-5.143.771-10.089 2.14-14.774 4.022.838 1.49 1.225 3.267.943 5.147-3.609 24.084-20.183 43.92-42.387 52.199-.086 1.378-.145 2.764-.145 4.163 33.232 0 60.751-24.462 65.532-56.363.807-5.385-3.783-9.975-9.169-9.168z" fill="#94d4a2"/><path d="m437.396 224.385c-5.143.771-10.089 2.14-14.774 4.022.838 1.49 1.225 3.267.943 5.147-3.609 24.084-20.183 43.92-42.387 52.199-.086 1.378-.145 2.764-.145 4.163 33.232 0 60.751-24.462 65.532-56.363.807-5.385-3.783-9.975-9.169-9.168z" fill="#94d4a2"/><path d="m315.502 157.95c4.781 31.9 32.299 56.363 65.531 56.363 0-33.232-24.462-60.751-56.363-65.531-5.386-.808-9.975 3.782-9.168 9.168z" fill="#b1e39d"/><ellipse cx="381.033" cy="115.967" fill="#b1e39d" rx="14.138" ry="31.185"/><g><path d="m381.033 322.267c-4.143 0-7.5-3.357-7.5-7.5v-176.767c0-4.143 3.357-7.5 7.5-7.5s7.5 3.357 7.5 7.5v176.767c0 4.142-3.357 7.5-7.5 7.5z" fill="#ae875a"/></g><path d="m386.384 87.101c-3.033-2.736-7.67-2.736-10.702 0-2.342 2.113-4.392 4.335-6.149 6.64 10.545 13.831 10.545 30.62 0 44.451 1.757 2.304 3.807 4.527 6.149 6.639 3.033 2.736 7.67 2.736 10.702 0 18.744-16.906 18.744-40.822 0-57.73z" fill="#94d4a2"/></g><path d="m182.233 318.767v-153.1c0-27.449 22.251-49.7 49.7-49.7s49.7 22.251 49.7 49.7v153.1z" fill="#b1e39d"/><path d="m231.933 115.967c-3.96 0-7.807.477-11.5 1.352 21.901 5.191 38.2 24.86 38.2 48.348v153.1h23v-153.1c0-27.449-22.251-49.7-49.7-49.7z" fill="#94d4a2"/><g><path d="m231.934 322.267c-4.143 0-7.5-3.357-7.5-7.5v-198.8c0-4.143 3.357-7.5 7.5-7.5s7.5 3.357 7.5 7.5v198.8c0 4.142-3.358 7.5-7.5 7.5z" fill="#94d4a2"/></g><circle cx="231.933" cy="99.4" fill="#de5964" r="16.567"/><g><g><path d="m198.8 281.633c0-18.299-14.834-33.133-33.133-33.133h-49.7c-18.299 0-33.133 14.834-33.133 33.133v16.567c0 9.149 7.417 16.567 16.567 16.567v3h82.833v-3c9.15 0 16.567-7.417 16.567-16.567v-16.567z" fill="#f8f6f6"/></g><g fill="#ece6e3"><path d="m165.667 248.5h-23c18.299 0 33.133 14.834 33.133 33.133v16.567c0 9.149-7.417 16.567-16.567 16.567h23c9.149 0 16.567-7.417 16.567-16.567v-16.567c0-18.299-14.834-33.133-33.133-33.133z"/><path d="m149.1 274.134c-4.143 0-7.5 3.357-7.5 7.5s3.357 7.5 7.5 7.5h49.7v-7.5c0-2.581-.305-5.089-.863-7.5z"/></g></g><path d="m50.563 207.866c-.558 2.411-.863 4.919-.863 7.501v7.499h33.133c4.143 0 7.5-3.357 7.5-7.5s-3.357-7.5-7.5-7.5z" fill="#d6cfca"/><g><g><path d="m16.567 314.767h463.867v100.733h-463.867z" fill="#f8f6f6"/><path d="m457.433 314.767h23v100.733h-23z" fill="#f6e0b9"/></g><path d="m480.433 414.167h-194.889c-12.55 0-24.023-7.091-29.635-18.316l-14.818-29.635c-5.613-11.225-17.085-18.316-29.635-18.316h-194.889v108.6h463.867v-42.333z" fill="#ae875a"/><g><path d="m82.833 388.533h-33.133c-4.143 0-7.5-3.357-7.5-7.5s3.357-7.5 7.5-7.5h33.133c4.143 0 7.5 3.357 7.5 7.5s-3.357 7.5-7.5 7.5z" fill="#a0794a"/></g><g><path d="m149.1 421.667h-33.133c-4.143 0-7.5-3.357-7.5-7.5s3.357-7.5 7.5-7.5h33.133c4.143 0 7.5 3.357 7.5 7.5s-3.358 7.5-7.5 7.5z" fill="#a0794a"/></g><path d="m457.433 414.167h23v42.333h-23z" fill="#a0794a"/></g><g><path d="m489 480.433h-481c-4.418 0-8-3.582-8-8v-17.133c0-4.418 3.582-8 8-8h481c4.418 0 8 3.582 8 8v17.133c0 4.419-3.582 8-8 8z" fill="#716e6e"/><path d="m489 447.3h-23c4.418 0 8 3.582 8 8v17.133c0 4.418-3.582 8-8 8h23c4.418 0 8-3.582 8-8v-17.133c0-4.418-3.582-8-8-8z" fill="#585555"/></g></g></svg>